<svg y="0px" x="0px" viewBox="8.2 10.2 88 86.5" data-name="Layer 1" xmlns="http://www.w3.org/2000/svg" style="max-height: 500px" width="88" height="86.5"><title>Artboard 61</title><path d="M42,65H35V58a3,3,0,0,0-6,0v7H22a3,3,0,0,0,0,6h7v7a3,3,0,0,0,6,0V71h7a3,3,0,0,0,0-6Z"/><path d="M55,81h7.41a11,11,0,0,0,10-6.49L79.8,58.16A13.48,13.48,0,0,0,81,52.62a13.22,13.22,0,0,0-4-9.39A14.35,14.35,0,0,0,67,39H64l.24-1.2A38.69,38.69,0,0,0,65,30.11V30A11,11,0,0,0,54,19a7,7,0,0,0-5.78,3L34.33,41.43A2.95,2.95,0,0,0,36.77,46h.13a2.94,2.94,0,0,0,2.43-1.28L53.49,25H54a5,5,0,0,1,5,5v.1A32.59,32.59,0,0,1,58,38l-.91,3.64A2.69,2.69,0,0,0,59.73,45h7.39a7.81,7.81,0,0,1,7.59,5.54,7.6,7.6,0,0,1-.39,5.16L67,72.05A5,5,0,0,1,62.41,75H55a3,3,0,0,0,0,6Z"/><text font-family="'Helvetica Neue', Helvetica, Arial-Unicode, Arial, Sans-serif" font-weight="bold" font-size="5px" fill="#000000" y="115" x="0">Created by Gregor Cresnar</text><text font-family="'Helvetica Neue', Helvetica, Arial-Unicode, Arial, Sans-serif" font-weight="bold" font-size="5px" fill="#000000" y="120" x="0">from the Noun Project</text></svg>